<?xml version="1.0" encoding="utf-8"?>
<!-- Generator: Adobe Illustrator 15.0.0, SVG Export Plug-In . SVG Version: 6.00 Build 0)  -->
<!DOCTYPE svg PUBLIC "-//W3C//DTD SVG 1.1//EN" "http://www.w3.org/Graphics/SVG/1.1/DTD/svg11.dtd">
<svg version="1.1" id="Layer_1" xmlns="http://www.w3.org/2000/svg" xmlns:xlink="http://www.w3.org/1999/xlink" x="0px" y="0px"
	 width="422.667px" height="286px" viewBox="0 0 422.667 286" enable-background="new 0 0 422.667 286" xml:space="preserve">
<g>
	<path d="M144.141,1.275C65.855,1.284,2.406,64.746,2.4,143.014C2.406,221.3,65.855,284.734,144.141,284.74
		c78.275-0.006,141.726-63.439,141.726-141.726C285.867,64.746,222.417,1.284,144.141,1.275z M229.148,228.011
		c-21.795,21.774-51.77,35.208-85.007,35.208c-33.239,0-63.226-13.434-84.999-35.208c-21.782-21.779-35.217-51.777-35.23-84.997
		c0.014-33.231,13.448-63.217,35.23-85.009c21.773-21.767,51.76-35.211,84.999-35.218c33.237,0.007,63.211,13.451,85.007,35.218
		c21.766,21.792,35.199,51.777,35.209,85.009C264.347,176.234,250.914,206.232,229.148,228.011z"/>
	<path d="M145.75,54.156c-54.289,0-81.957,38.825-81.957,90.603c0,49.617,31.266,88.441,82.676,88.441
		c27.55,0,52.697-12.104,69.429-33.271l-25.465-18.292c-10.631,14.202-23.214,22.79-43.601,22.79
		c-30.916,0-50.328-26.954-50.691-55.712H224.49v-5.04C224.49,93.705,199.321,54.156,145.75,54.156z M97.941,124.266
		c3.948-24.084,22.643-42.062,47.809-42.062c25.893,0,42.426,16.902,46.387,42.062H97.941z"/>
	<path d="M384.522,13.672h-41.139v99.951h24.109V79.111h18.037c24.5,0,36.397-10.91,36.397-33.281
		C421.927,19.232,401.594,13.672,384.522,13.672z M374.311,61.433h-6.818V31.339h2.063h4.755c10.496,0,22.366,0,22.366,15.323
		C396.677,61.433,384.278,61.433,374.311,61.433z"/>
	<rect x="298.518" y="13.672" width="24.068" height="99.951"/>
</g>
</svg>
