<svg id="Layer_1" enable-background="new 0 0 512 512" viewBox="0 0 512 512" xmlns="http://www.w3.org/2000/svg" xmlns:xlink="http://www.w3.org/1999/xlink" width="300" height="300" version="1.1" xmlns:svgjs="http://svgjs.dev/svgjs">
  <!-- Vit bakgrund -->
  <rect width="100%" height="100%" fill="white" />
  
  <g width="100%" height="100%" transform="matrix(1,0,0,1,0,0)">
    <linearGradient id="SVGID_1_" gradientUnits="userSpaceOnUse" x1="256" x2="256" y1=".5" y2="511.5">
      <stop stop-opacity="1" stop-color="#17a6d7" offset="0" />
      <stop stop-opacity="1" stop-color="#259adb" offset="0.0617" />
      <stop stop-opacity="1" stop-color="#3b87e2" offset="0.1856" />
      <stop stop-opacity="1" stop-color="#4380e4" offset="0.2649" />
      <stop stop-opacity="1" stop-color="#9735fd" offset="1" />
    </linearGradient>
    <path d="m445.722 331.333h-84.002c3.284-4.72 6.272-9.65 8.911-14.792h82.481c4.086 0 7.391 3.315 7.391 7.401v38.643c-1.932-.264-3.896-.401-5.892-.401-3.051 0-6.018.317-8.89.908v-31.759zm-386.803-14.792c-4.086 0-7.391 3.315-7.391 7.401v38.633c1.911-.253 3.875-.391 5.86-.391 3.051 0 6.039.317 8.922.918v-31.77h80.824c-3.284-4.72-6.272-9.65-8.911-14.792h-79.304zm-7.391-166.694v55.336c0 4.075 3.305 7.391 7.391 7.391h72.535c1.827-5.078 3.97-10.009 6.388-14.782h-71.532v-47.945zm394.194 47.945h-74.71c2.428 4.772 4.561 9.703 6.398 14.782h75.703c4.086 0 7.391-3.315 7.391-7.391v-55.336h-14.782zm-331.435-96.587c0-15.573-12.659-28.254-28.222-28.254h-11.33-14.845l2.608 27.948-5.1 7.064-5.078-7.064 2.576-27.948h-14.845-11.297c-15.584 0-28.254 12.68-28.254 28.254v33.85h113.787zm-64.142-43.954c.074.011.148.032.211.053 2.249.559 4.604.866 7.032.866s4.783-.306 7.032-.866c.105-.021.201-.053.296-.074 12.374-3.252 21.528-14.539 21.528-27.916 0-15.89-12.944-28.814-28.856-28.814-15.89 0-28.814 12.923-28.814 28.814.001 13.409 9.176 24.716 21.571 27.937zm232.388 311.987c26.301-6.567 49.065-22.151 64.817-43.247-15.098-3.643-30.323-6.388-45.643-8.204-4.213 20.621-10.643 38.823-19.174 51.451zm24.981-105.034c-.296 13.156-1.394 26.364-3.263 38.992 17.316 2.091 34.526 5.321 51.577 9.671 8.109-14.591 13.156-31.105 14.254-48.663zm0-14.792h62.568c-1.098-17.58-6.145-34.103-14.264-48.695-17.052 4.35-34.251 7.581-51.567 9.671 1.869 12.638 2.967 25.857 3.263 39.024zm39.826-61.819c-15.753-21.095-38.517-36.669-64.807-43.247 8.521 12.628 14.951 30.82 19.163 51.451 15.32-1.816 30.535-4.551 45.644-8.204zm-185.763 138.514c15.753 21.043 38.485 36.574 64.722 43.131-8.499-12.586-14.919-30.704-19.132-51.239-15.15 1.847-30.365 4.55-45.59 8.108zm39.742-61.903h-62.547c1.109 17.59 6.156 34.135 14.296 48.737 17.221-4.234 34.41-7.412 51.546-9.524-1.891-12.691-3-25.984-3.295-39.213zm3.294-54.038c-17.126-2.112-34.314-5.29-51.535-9.523-8.14 14.613-13.198 31.168-14.307 48.769h62.547c.296-13.24 1.405-26.544 3.295-39.246zm21.687-65.82c-26.237 6.557-48.948 22.088-64.701 43.131 15.225 3.569 30.429 6.261 45.58 8.109 4.212-20.536 10.632-38.654 19.121-51.24zm60.583 52.929c-7.338-34.346-20.378-56.381-32.467-56.381-12.068 0-25.076 21.961-32.435 56.212 21.761 1.837 43.416 1.9 64.902.169zm2.661 14.623c-11.287.95-22.605 1.425-33.966 1.425-12.047 0-24.136-.538-36.268-1.605-1.763 11.604-2.904 24.263-3.21 37.693h76.632c-.306-13.366-1.436-25.962-3.188-37.513zm-70.234 89.957c23.566-2.059 47.006-2.122 70.244-.169 1.753-11.54 2.872-24.136 3.178-37.482h-76.632c.306 13.419 1.447 26.058 3.21 37.651zm2.671 14.623c7.349 34.251 20.367 56.212 32.435 56.212 12.089 0 25.129-22.035 32.477-56.381-21.486-1.732-43.141-1.668-64.912.169zm-135.917 132.918h-11.329-14.845l2.608 27.979-5.1 7.064-5.078-7.064 2.576-27.979h-14.845-11.297c-15.584 0-28.254 12.681-28.254 28.254v33.85h113.787v-33.85c0-15.573-12.66-28.254-28.223-28.254zm-28.676-14.782c15.911 0 28.856-12.923 28.856-28.824 0-15.89-12.944-28.814-28.856-28.814-15.89 0-28.814 12.923-28.814 28.814.001 15.901 12.924 28.824 28.814 28.824zm425.89 14.782h-11.329-14.845l2.576 27.979-5.068 7.053-5.078-7.053 2.576-27.979h-14.834-11.308c-15.584 0-28.254 12.681-28.254 28.254v33.85h113.786v-33.85c0-15.573-12.659-28.254-28.222-28.254zm-57.49-43.606c0 15.901 12.923 28.824 28.824 28.824s28.845-12.923 28.845-28.824c0-15.89-12.944-28.814-28.845-28.814-15.901.001-28.824 12.924-28.824 28.814zm57.49-332.839h-11.329-14.845l2.576 27.948-5.068 7.053-5.078-7.053 2.576-27.948h-14.845-11.297c-15.584 0-28.254 12.681-28.254 28.254v33.85h113.786v-33.85c0-15.574-12.659-28.254-28.222-28.254zm-36.11-15.753c.011 0 .021.011.032.011s.032.011.042.011c.042.011.074.021.116.032.063.011.127.032.19.042 2.26.57 4.625.876 7.063.876 2.386 0 4.72-.306 6.926-.834.021 0 .032-.011.053-.011.011-.01.011-.01.021-.01.011-.011.021-.011.032-.011.074-.021.137-.042.211-.053.011 0 .021-.011.032-.011 12.385-3.231 21.57-14.528 21.57-27.927 0-15.89-12.944-28.814-28.845-28.814s-28.824 12.923-28.824 28.814c.001 13.346 9.091 24.591 21.381 27.885z" fill="url(#SVGID_1_)" data-original-color="SVGID_1_" stroke="none" stroke-opacity="1"/>
  </g>
</svg>
